<?xml version="1.0" standalone="no"?>
<!DOCTYPE svg PUBLIC "-//W3C//DTD SVG 20010904//EN"
 "http://www.w3.org/TR/2001/REC-SVG-20010904/DTD/svg10.dtd">
<svg version="1.0" xmlns="http://www.w3.org/2000/svg"
 width="100.000000pt" height="100.000000pt" viewBox="0 0 100.000000 100.000000"
 preserveAspectRatio="xMidYMid meet">

<g transform="translate(0.000000,100.000000) scale(0.100000,-0.100000)"
fill="#000000" stroke="none">
<path d="M426 909 c-166 -27 -309 -175 -337 -348 -35 -219 125 -435 349 -471
221 -36 436 123 473 349 35 218 -124 435 -346 471 -67 11 -70 11 -139 -1z
m224 -90 c70 -33 136 -99 169 -169 22 -47 26 -69 26 -150 0 -81 -4 -103 -26
-150 -33 -70 -99 -136 -169 -169 -47 -22 -69 -26 -150 -26 -81 0 -103 4 -150
26 -120 57 -192 167 -198 304 -7 157 71 281 216 342 79 33 202 30 282 -8z"/>
<path d="M599 688 c-7 -12 -27 -36 -45 -54 -71 -66 -22 -164 81 -164 25 0 37
-6 46 -21 13 -26 -1 -43 -44 -53 -22 -5 -32 -1 -51 19 -26 28 -39 31 -55 11
-15 -18 4 -63 30 -71 10 -4 24 -18 31 -33 18 -36 45 -40 59 -8 7 14 20 26 30
26 24 0 69 56 69 85 0 62 -47 105 -114 105 -61 0 -72 58 -15 73 14 4 27 -3 42
-19 25 -29 43 -31 57 -3 10 17 6 25 -23 53 -19 17 -39 42 -46 54 -6 12 -18 22
-26 22 -8 0 -20 -10 -26 -22z"/>
<path d="M282 658 c-18 -18 -17 -302 2 -317 26 -22 46 -2 46 47 l0 45 55 -52
c56 -53 70 -58 89 -28 9 13 2 25 -31 59 l-43 43 35 28 c64 51 53 142 -20 173
-42 17 -117 18 -133 2z m128 -77 c13 -25 13 -27 -6 -45 -8 -9 -29 -16 -45 -16
-27 0 -29 2 -29 40 0 39 1 40 35 40 24 0 37 -6 45 -19z"/>
</g>
</svg>
